<svg width="230" height="66" viewBox="0 0 230 66" fill="none" xmlns="http://www.w3.org/2000/svg">
<path d="M17.8019 51.4182C13.1364 51.4182 9.3019 49.8913 6.29847 46.8374C3.26587 43.7544 1.74957 40.017 1.74957 35.6252C1.74957 31.2334 3.26587 27.496 6.29847 24.413C9.3019 21.3591 13.1364 19.8322 17.8019 19.8322C20.6012 19.8322 23.1819 20.5157 25.5438 21.8826C27.9057 23.2205 29.7428 25.0383 31.0549 27.336L28.3431 28.9066C27.3808 27.0452 25.952 25.5619 24.0567 24.4566C22.1613 23.3514 20.0764 22.7988 17.8019 22.7988C13.9529 22.7988 10.8328 24.0349 8.4417 26.5071C6.02145 29.0084 4.81133 32.0478 4.81133 35.6252C4.81133 39.2026 6.02145 42.242 8.4417 44.7432C10.8328 47.2155 13.9529 48.4516 17.8019 48.4516C20.0764 48.4516 22.1613 47.8989 24.0567 46.7937C25.952 45.6885 27.3808 44.2052 28.3431 42.3438L31.0549 43.8707C29.8011 46.1684 27.9786 48.0007 25.5875 49.3677C23.1964 50.7347 20.6012 51.4182 17.8019 51.4182ZM53.7659 48.1462C51.5207 50.3275 48.8088 51.4182 45.6304 51.4182C42.3937 51.4182 39.6673 50.3275 37.4512 48.1462C35.235 45.9357 34.127 43.2163 34.127 39.9879C34.127 36.7595 35.235 34.0546 37.4512 31.8732C39.6673 29.6628 42.3937 28.5576 45.6304 28.5576C48.838 28.5576 51.5498 29.6628 53.7659 31.8732C56.0112 34.0546 57.1337 36.7595 57.1337 39.9879C57.1337 43.1872 56.0112 45.9066 53.7659 48.1462ZM39.5069 46.1393C41.169 47.7971 43.2102 48.6261 45.6304 48.6261C48.0507 48.6261 50.0918 47.7971 51.7539 46.1393C53.416 44.4233 54.2471 42.3728 54.2471 39.9879C54.2471 37.5739 53.416 35.5379 51.7539 33.8801C50.0918 32.1932 48.0507 31.3497 45.6304 31.3497C43.2102 31.3497 41.169 32.1932 39.5069 33.8801C37.8448 35.5379 37.0138 37.5739 37.0138 39.9879C37.0138 42.3728 37.8448 44.4233 39.5069 46.1393ZM64.8515 50.8947H61.9647V19.0469H64.8515V50.8947ZM89.304 48.1462C87.0587 50.3275 84.3469 51.4182 81.1685 51.4182C77.9318 51.4182 75.2053 50.3275 72.9892 48.1462C70.7731 45.9357 69.665 43.2163 69.665 39.9879C69.665 36.7595 70.7731 34.0546 72.9892 31.8732C75.2053 29.6628 77.9318 28.5576 81.1685 28.5576C84.376 28.5576 87.0879 29.6628 89.304 31.8732C91.5493 34.0546 92.6719 36.7595 92.6719 39.9879C92.6719 43.1872 91.5493 45.9066 89.304 48.1462ZM75.045 46.1393C76.7071 47.7971 78.7482 48.6261 81.1685 48.6261C83.5887 48.6261 85.6299 47.7971 87.292 46.1393C88.9541 44.4233 89.7851 42.3728 89.7851 39.9879C89.7851 37.5739 88.9541 35.5379 87.292 33.8801C85.6299 32.1932 83.5887 31.3497 81.1685 31.3497C78.7482 31.3497 76.7071 32.1932 75.045 33.8801C73.3829 35.5379 72.5518 37.5739 72.5518 39.9879C72.5518 42.3728 73.3829 44.4233 75.045 46.1393ZM120.816 28.5576C123.295 28.5576 125.277 29.3429 126.765 30.9135C128.252 32.484 128.995 34.6072 128.995 37.283V50.8947H126.108V37.283C126.108 35.4216 125.627 33.9673 124.665 32.9203C123.703 31.8732 122.405 31.3497 120.772 31.3497C118.877 31.3497 117.39 31.975 116.311 33.2257C115.232 34.4763 114.692 36.3378 114.692 38.81V50.8947H111.806V37.283C111.806 35.3925 111.354 33.9383 110.45 32.9203C109.546 31.8732 108.292 31.3497 106.688 31.3497C104.851 31.3497 103.335 31.9896 102.139 33.2693C100.973 34.549 100.39 36.3959 100.39 38.81V50.8947H97.5029V29.0811H100.39V32.2659C101.964 29.7937 104.195 28.5576 107.082 28.5576C110.26 28.5576 112.476 29.8809 113.73 32.5277C115.305 29.8809 117.667 28.5576 120.816 28.5576ZM146.301 28.5576C149.421 28.5576 152.074 29.6628 154.261 31.8732C156.478 34.0837 157.586 36.7886 157.586 39.9879C157.586 43.1872 156.478 45.8921 154.261 48.1025C152.074 50.313 149.421 51.4182 146.301 51.4182C142.423 51.4182 139.478 49.8185 137.466 46.6192V50.8947H134.579V20.3557H137.466V33.3566C139.478 30.1572 142.423 28.5576 146.301 28.5576ZM139.959 46.1393C141.621 47.7971 143.662 48.6261 146.082 48.6261C148.502 48.6261 150.544 47.7971 152.206 46.1393C153.868 44.4233 154.699 42.3728 154.699 39.9879C154.699 37.5739 153.868 35.5379 152.206 33.8801C150.544 32.1932 148.502 31.3497 146.082 31.3497C143.662 31.3497 141.621 32.1932 139.959 33.8801C138.297 35.5379 137.466 37.5739 137.466 39.9879C137.466 42.3728 138.297 44.4233 139.959 46.1393ZM180.713 48.1462C178.467 50.3275 175.755 51.4182 172.577 51.4182C169.34 51.4182 166.614 50.3275 164.398 48.1462C162.182 45.9357 161.074 43.2163 161.074 39.9879C161.074 36.7595 162.182 34.0546 164.398 31.8732C166.614 29.6628 169.34 28.5576 172.577 28.5576C175.785 28.5576 178.496 29.6628 180.713 31.8732C182.958 34.0546 184.08 36.7595 184.08 39.9879C184.08 43.1872 182.958 45.9066 180.713 48.1462ZM166.454 46.1393C168.116 47.7971 170.157 48.6261 172.577 48.6261C174.997 48.6261 177.038 47.7971 178.701 46.1393C180.363 44.4233 181.194 42.3728 181.194 39.9879C181.194 37.5739 180.363 35.5379 178.701 33.8801C177.038 32.1932 174.997 31.3497 172.577 31.3497C170.157 31.3497 168.116 32.1932 166.454 33.8801C164.791 35.5379 163.96 37.5739 163.96 39.9879C163.96 42.3728 164.791 44.4233 166.454 46.1393Z" fill="#101010"/>
<path d="M214.936 50.8984H208.375L206.538 45.4013H194.335L192.498 50.8984H185.981L196.697 20.3594H204.176L214.936 50.8984ZM200.459 27.2961L196.26 39.7734H204.658L200.459 27.2961Z" fill="#1E71F2"/>
<path d="M217.909 50.8984V20.3594H223.945V50.8984H217.909Z" fill="url(#paint0_linear_5639_156181)"/>
<path d="M219.888 2.832C220.25 1.85808 221.63 1.85808 221.992 2.832L223.184 6.04647C223.298 6.35264 223.54 6.59405 223.847 6.70737L227.07 7.89682C228.046 8.25719 228.046 9.63469 227.07 9.99506L223.847 11.1845C223.54 11.2978 223.298 11.5392 223.184 11.8454L221.992 15.0599C221.63 16.0338 220.25 16.0338 219.888 15.0599L218.696 11.8454C218.582 11.5392 218.34 11.2978 218.033 11.1845L214.81 9.99506C213.834 9.63469 213.834 8.25719 214.81 7.89682L218.033 6.70737C218.34 6.59405 218.582 6.35264 218.696 6.04647L219.888 2.832Z" fill="url(#paint1_linear_5639_156181)"/>
<defs>
<linearGradient id="paint0_linear_5639_156181" x1="113.554" y1="11.7458" x2="113.554" y2="66" gradientUnits="userSpaceOnUse">
<stop stop-color="#1E71F2" stop-opacity="0"/>
<stop offset="0.713542" stop-color="#1E71F2"/>
</linearGradient>
<linearGradient id="paint1_linear_5639_156181" x1="220.94" y1="-0.00321082" x2="220.94" y2="17.8951" gradientUnits="userSpaceOnUse">
<stop stop-color="#1E71F2"/>
<stop offset="0.5" stop-color="#1E71F2" stop-opacity="0.5"/>
<stop offset="1" stop-color="#1E71F2" stop-opacity="0.2"/>
</linearGradient>
</defs>
</svg>
