<svg width="42" height="42" viewBox="0 0 42 42" fill="none" xmlns="http://www.w3.org/2000/svg">
<path d="M17.2486 3.13802C18.5372 -0.344457 23.4628 -0.34445 24.7514 3.13802L27.9242 11.7125C28.3294 12.8074 29.1926 13.6706 30.2875 14.0758L38.862 17.2486C42.3445 18.5372 42.3445 23.4628 38.862 24.7514L30.2875 27.9242C29.1926 28.3294 28.3294 29.1926 27.9242 30.2875L24.7514 38.862C23.4628 42.3445 18.5372 42.3445 17.2486 38.862L14.0758 30.2875C13.6706 29.1926 12.8074 28.3294 11.7125 27.9242L3.13802 24.7514C-0.344457 23.4628 -0.34445 18.5372 3.13802 17.2486L11.7125 14.0758C12.8074 13.6706 13.6706 12.8074 14.0758 11.7125L17.2486 3.13802Z" fill="url(#paint0_linear_404_575)"/>
<defs>
<linearGradient id="paint0_linear_404_575" x1="21" y1="0" x2="21" y2="49" gradientUnits="userSpaceOnUse">
<stop stop-color="#1E71F2"/>
<stop offset="1" stop-color="#E9F0FF"/>
</linearGradient>
</defs>
</svg>