<svg width="37" height="36" viewBox="0 0 37 36" fill="none" xmlns="http://www.w3.org/2000/svg">
<path fill-rule="evenodd" clip-rule="evenodd" d="M3.15428 4.99675C2.97541 5.82601 2.90001 6.92377 2.90001 8.39999C2.90001 9.87622 2.97541 10.974 3.15428 11.8032C3.33022 12.619 3.58893 13.0919 3.89853 13.4015C4.20811 13.7111 4.68099 13.9698 5.49675 14.1457C6.32601 14.3246 7.42377 14.4 8.89999 14.4C10.3762 14.4 11.474 14.3246 12.3032 14.1457C13.119 13.9698 13.5919 13.7111 13.9015 13.4015C14.2111 13.0919 14.4698 12.619 14.6457 11.8032C14.8246 10.974 14.9 9.87622 14.9 8.39999C14.9 6.92377 14.8246 5.82601 14.6457 4.99675C14.4698 4.18099 14.2111 3.70811 13.9015 3.39853C13.5919 3.08893 13.119 2.83022 12.3032 2.65428C11.474 2.47541 10.3762 2.40001 8.89999 2.40001C7.42377 2.40001 6.32601 2.47541 5.49675 2.65428C4.68099 2.83022 4.20811 3.08893 3.89853 3.39853C3.58893 3.70811 3.33022 4.18099 3.15428 4.99675ZM4.99074 0.308225C6.07399 0.0745854 7.37623 0 8.89999 0C10.4238 0 11.726 0.0745854 12.8093 0.308225C13.906 0.544778 14.8581 0.961069 15.5986 1.70147C16.3389 2.44188 16.7551 3.394 16.9918 4.49074C17.2254 5.57399 17.3001 6.87623 17.3001 8.39999C17.3001 9.92378 17.2254 11.226 16.9918 12.3093C16.7551 13.406 16.3389 14.3581 15.5986 15.0986C14.8581 15.8389 13.906 16.2551 12.8093 16.4918C11.726 16.7254 10.4238 16.8001 8.89999 16.8001C7.37623 16.8001 6.07399 16.7254 4.99074 16.4918C3.894 16.2551 2.94188 15.8389 2.20147 15.0986C1.46107 14.3581 1.04478 13.406 0.808225 12.3093C0.574585 11.226 0.5 9.92378 0.5 8.39999C0.5 6.87623 0.574585 5.57399 0.808225 4.49074C1.04478 3.394 1.46107 2.44188 2.20147 1.70147C2.94188 0.961069 3.894 0.544778 4.99074 0.308225ZM22.3543 4.99675C22.1754 5.82601 22.1 6.92377 22.1 8.39999C22.1 9.87622 22.1754 10.974 22.3543 11.8032C22.5302 12.619 22.7889 13.0919 23.0985 13.4015C23.4081 13.7111 23.881 13.9698 24.6967 14.1457C25.5261 14.3246 26.6237 14.4 28.1001 14.4C29.5762 14.4 30.6741 14.3246 31.5032 14.1457C32.3189 13.9698 32.7918 13.7111 33.1014 13.4015C33.411 13.0919 33.6697 12.619 33.8457 11.8032C34.0245 10.974 34.0999 9.87622 34.0999 8.39999C34.0999 6.92377 34.0245 5.82601 33.8457 4.99675C33.6697 4.18099 33.411 3.70811 33.1014 3.39853C32.7918 3.08893 32.3189 2.83022 31.5032 2.65428C30.6741 2.47541 29.5762 2.40001 28.1001 2.40001C26.6237 2.40001 25.5261 2.47541 24.6967 2.65428C23.881 2.83022 23.4081 3.08893 23.0985 3.39853C22.7889 3.70811 22.5302 4.18099 22.3543 4.99675ZM24.1908 0.308225C25.2741 0.0745854 26.5763 0 28.1001 0C29.6238 0 30.9261 0.0745854 32.0093 0.308225C33.106 0.544778 34.0581 0.961069 34.7985 1.70147C35.539 2.44188 35.9553 3.394 36.1917 4.49074C36.4254 5.57399 36.5 6.87623 36.5 8.39999C36.5 9.92378 36.4254 11.226 36.1917 12.3093C35.9553 13.406 35.539 14.3581 34.7985 15.0986C34.0581 15.8389 33.106 16.2551 32.0093 16.4918C30.9261 16.7254 29.6238 16.8001 28.1001 16.8001C26.5763 16.8001 25.2741 16.7254 24.1908 16.4918C23.0939 16.2551 22.1419 15.8389 21.4014 15.0986C20.6611 14.3581 20.2449 13.406 20.0082 12.3093C19.7746 11.226 19.6999 9.92378 19.6999 8.39999C19.6999 6.87623 19.7746 5.57399 20.0082 4.49074C20.2449 3.394 20.6611 2.44188 21.4014 1.70147C22.1419 0.961069 23.0939 0.544778 24.1908 0.308225ZM3.15428 24.1967C2.97541 25.0261 2.90001 26.1237 2.90001 27.6001C2.90001 29.0762 2.97541 30.1741 3.15428 31.0032C3.33022 31.8189 3.58893 32.2918 3.89853 32.6014C4.20811 32.911 4.68099 33.1697 5.49675 33.3457C6.32601 33.5245 7.42377 33.5999 8.89999 33.5999C10.3762 33.5999 11.474 33.5245 12.3032 33.3457C13.119 33.1697 13.5919 32.911 13.9015 32.6014C14.2111 32.2918 14.4698 31.8189 14.6457 31.0032C14.8246 30.1741 14.9 29.0762 14.9 27.6001C14.9 26.1237 14.8246 25.0261 14.6457 24.1967C14.4698 23.381 14.2111 22.9081 13.9015 22.5985C13.5919 22.2889 13.119 22.0302 12.3032 21.8543C11.474 21.6754 10.3762 21.6 8.89999 21.6C7.42377 21.6 6.32601 21.6754 5.49675 21.8543C4.68099 22.0302 4.20811 22.2889 3.89853 22.5985C3.58893 22.9081 3.33022 23.381 3.15428 24.1967ZM4.99074 19.5082C6.07399 19.2746 7.37623 19.1999 8.89999 19.1999C10.4238 19.1999 11.726 19.2746 12.8093 19.5082C13.906 19.7449 14.8581 20.1611 15.5986 20.9014C16.3389 21.6419 16.7551 22.5939 16.9918 23.6908C17.2254 24.7741 17.3001 26.0763 17.3001 27.6001C17.3001 29.1238 17.2254 30.4261 16.9918 31.5093C16.7551 32.606 16.3389 33.5581 15.5986 34.2985C14.8581 35.039 13.906 35.4553 12.8093 35.6917C11.726 35.9254 10.4238 36 8.89999 36C7.37623 36 6.07399 35.9254 4.99074 35.6917C3.894 35.4553 2.94188 35.039 2.20147 34.2985C1.46107 33.5581 1.04478 32.606 0.808225 31.5093C0.574585 30.4261 0.5 29.1238 0.5 27.6001C0.5 26.0763 0.574585 24.7741 0.808225 23.6908C1.04478 22.5939 1.46107 21.6419 2.20147 20.9014C2.94188 20.1611 3.894 19.7449 4.99074 19.5082ZM22.3543 24.1967C22.1754 25.0261 22.1 26.1237 22.1 27.6001C22.1 29.0762 22.1754 30.1741 22.3543 31.0032C22.5302 31.8189 22.7889 32.2918 23.0985 32.6014C23.4081 32.911 23.881 33.1697 24.6967 33.3457C25.5261 33.5245 26.6237 33.5999 28.1001 33.5999C29.5762 33.5999 30.6741 33.5245 31.5032 33.3457C32.3189 33.1697 32.7918 32.911 33.1014 32.6014C33.411 32.2918 33.6697 31.8189 33.8457 31.0032C34.0245 30.1741 34.0999 29.0762 34.0999 27.6001C34.0999 26.1237 34.0245 25.0261 33.8457 24.1967C33.6697 23.381 33.411 22.9081 33.1014 22.5985C32.7918 22.2889 32.3189 22.0302 31.5032 21.8543C30.6741 21.6754 29.5762 21.6 28.1001 21.6C26.6237 21.6 25.5261 21.6754 24.6967 21.8543C23.881 22.0302 23.4081 22.2889 23.0985 22.5985C22.7889 22.9081 22.5302 23.381 22.3543 24.1967ZM24.1908 19.5082C25.2741 19.2746 26.5763 19.1999 28.1001 19.1999C29.6238 19.1999 30.9261 19.2746 32.0093 19.5082C33.106 19.7449 34.0581 20.1611 34.7985 20.9014C35.539 21.6419 35.9553 22.5939 36.1917 23.6908C36.4254 24.7741 36.5 26.0763 36.5 27.6001C36.5 29.1238 36.4254 30.4261 36.1917 31.5093C35.9553 32.606 35.539 33.5581 34.7985 34.2985C34.0581 35.039 33.106 35.4553 32.0093 35.6917C30.9261 35.9254 29.6238 36 28.1001 36C26.5763 36 25.2741 35.9254 24.1908 35.6917C23.0939 35.4553 22.1419 35.039 21.4014 34.2985C20.6611 33.5581 20.2449 32.606 20.0082 31.5093C19.7746 30.4261 19.6999 29.1238 19.6999 27.6001C19.6999 26.0763 19.7746 24.7741 20.0082 23.6908C20.2449 22.5939 20.6611 21.6419 21.4014 20.9014C22.1419 20.1611 23.0939 19.7449 24.1908 19.5082Z" fill="#1E71F2"/>
</svg>
