<svg width="30" height="32" viewBox="0 0 30 32" fill="none" xmlns="http://www.w3.org/2000/svg">
<path d="M13.8 6.10371C14.4 6.32572 14.4 7.17428 13.8 7.39629L11.0654 8.40821C10.8767 8.47801 10.728 8.62673 10.6582 8.81535L9.64629 11.55C9.42428 12.15 8.57572 12.15 8.35371 11.55L7.34179 8.81535C7.27199 8.62673 7.12327 8.47801 6.93465 8.40821L4.19997 7.39629C3.60001 7.17428 3.60001 6.32572 4.19997 6.10371L6.93465 5.09179C7.12327 5.02199 7.27199 4.87327 7.34179 4.68465L8.35371 1.94997C8.57572 1.35001 9.42428 1.35001 9.64629 1.94997L10.6582 4.68465C10.728 4.87327 10.8767 5.02199 11.0654 5.09179L13.8 6.10371Z" fill="#8E8E93"/>
<path d="M22.1923 8.43047L20.042 6.78354C19.8108 6.60642 19.4798 6.65028 19.3027 6.88155C19.1256 7.11281 19.1695 7.44373 19.4007 7.62086L21.551 9.26778C21.7823 9.44491 22.1132 9.40105 22.2903 9.16978C22.4674 8.93851 22.4236 8.6076 22.1923 8.43047Z" fill="#8E8E93"/>
<path d="M25.7 18.217C25.7925 17.955 25.7295 17.6687 25.5354 17.4697L23.1994 15.0744L23.7104 12.489L26.0496 9.43491C26.2267 9.20364 26.1828 8.87273 25.9516 8.6956L25.3096 8.20393L26.0861 7.1901C26.8689 6.16843 26.6744 4.70039 25.6525 3.91774L23.4976 2.26731C22.4758 1.4847 21.0078 1.67931 20.2251 2.70111L19.4486 3.71494L18.8067 3.22327C18.5754 3.04614 18.2445 3.09 18.0674 3.32127L15.542 6.61856C15.3868 6.82114 15.4012 7.10019 15.5627 7.28532L15.4463 7.43726C15.2692 7.66853 15.3131 7.99944 15.5443 8.17657C15.7756 8.3537 16.1065 8.30984 16.2836 8.07857L16.3935 7.93511L17.7148 8.9471L16.2916 10.8053C16.2358 10.826 16.1815 10.8527 16.1307 10.8877C15.9492 11.0126 15.8394 11.2075 15.8208 11.4199L5.21612 25.2658L3.89483 24.2538L14.9262 9.85089C15.1033 9.61962 15.0595 9.28871 14.8282 9.11158C14.5969 8.93445 14.266 8.97831 14.0889 9.20958L8.62027 16.3496C8.57668 16.2795 8.52138 16.2158 8.45294 16.1633C8.24255 16.0022 7.96437 15.9743 7.72663 16.0908L5.2618 17.3008L2.85253 15.9529C2.6203 15.823 2.34008 15.8361 2.1212 15.987C1.90274 16.1376 1.79106 16.3942 1.82986 16.6574L2.23449 19.3777L0.2224 21.2385C0.0278171 21.4183 -0.0462655 21.6881 0.0288221 21.9424C0.0714501 22.0869 0.157319 22.2095 0.271249 22.2968C0.358274 22.3634 0.461625 22.4095 0.574763 22.4291L3.29233 22.9012L3.40954 23.1528L2.73685 24.0311C2.73193 24.0375 2.72781 24.0443 2.72322 24.0508C2.71951 24.0562 2.71569 24.0614 2.71224 24.0668C2.68862 24.1035 2.67013 24.1422 2.65651 24.1821C2.65467 24.1875 2.6531 24.1931 2.65137 24.1985C2.64636 24.2149 2.64223 24.2314 2.63893 24.2481C2.63785 24.2532 2.63666 24.2582 2.63578 24.2633C2.63225 24.284 2.62999 24.3047 2.62903 24.3255C2.62894 24.3275 2.62849 24.3294 2.6284 24.3313L2.36717 30.9972C2.35679 31.2598 2.47522 31.5119 2.6839 31.6718C2.89256 31.8316 3.16705 31.8805 3.41778 31.8022L9.78757 29.8147C9.78941 29.8142 9.79109 29.8132 9.79291 29.8126C9.81277 29.8062 9.83227 29.7986 9.85137 29.7898C9.85615 29.7876 9.86058 29.7851 9.86528 29.7827C9.88043 29.7752 9.89529 29.7669 9.90974 29.7579C9.91469 29.7548 9.9197 29.7517 9.92454 29.7485C9.94218 29.7367 9.95941 29.724 9.9757 29.7099C9.99167 29.6961 10.0067 29.6807 10.0212 29.6647C10.0256 29.66 10.0296 29.6549 10.0337 29.65C10.0389 29.6438 10.0444 29.6381 10.0493 29.6316L10.4563 29.1002C10.6335 28.8689 10.5896 28.538 10.3583 28.3609C10.1271 28.1838 9.79615 28.2276 9.61903 28.4589L9.53266 28.5716L8.21138 27.5597L15.0966 18.57L16.95 18.8874L10.9817 26.6798C10.8045 26.911 10.8484 27.2419 11.0797 27.4191C11.3109 27.5962 11.6419 27.5523 11.819 27.3211L17.7775 19.5415L18.9246 22.0219C19.0414 22.2742 19.2864 22.4352 19.5642 22.4423C19.8419 22.4493 20.0949 22.3008 20.2242 22.0548L21.7803 19.0928L25.1028 18.6955C25.3787 18.6624 25.6076 18.4791 25.7 18.217ZM4.12961 22.2128C4.02603 22.0454 3.855 21.9285 3.65855 21.8944L1.47662 21.5153L3.09157 20.0216C3.26011 19.866 3.34012 19.6376 3.30591 19.412L2.9819 17.2338L4.91138 18.3133C5.10817 18.4237 5.34735 18.4313 5.55584 18.3314L7.53759 17.3586L7.43167 17.9015L4.12961 22.2128ZM16.7 6.84126L18.5841 4.38128L21.7379 6.79694C21.9691 6.97407 22.3 6.93021 22.4772 6.69894C22.6543 6.46767 22.6104 6.13676 22.3792 5.95963L20.2859 4.3564L21.0625 3.34247C21.4915 2.78236 22.2963 2.67568 22.8564 3.10467L25.0112 4.7551C25.5714 5.18409 25.678 5.98886 25.249 6.54897L24.4725 7.5629L24.1748 7.33489C23.9435 7.15776 23.6126 7.20163 23.4355 7.4329C23.2583 7.66416 23.3022 7.99508 23.5335 8.17221L24.8918 9.21243L23.5027 11.0262C23.2935 10.9033 23.0381 10.892 22.8163 11.0016L22.4002 11.2071L16.7 6.84126ZM21.3456 11.7279L19.8163 12.4832L19.7761 12.4608L20.7102 11.2413L21.3456 11.7279ZM13.65 17.9125C13.6948 18.0631 13.7843 18.1906 13.9031 18.2816C13.9213 18.2955 13.9405 18.3078 13.96 18.32L7.37416 26.9187L6.05343 25.9071L16.0153 12.9006L16.3064 14.9001L13.8521 17.1743C13.6483 17.3632 13.5708 17.6461 13.65 17.9125ZM19.8728 10.6L18.8456 11.9412L17.3779 11.1215L18.5521 9.5884L19.8728 10.6ZM3.43527 30.6876L3.49563 29.1445L4.91295 30.2294L3.43527 30.6876ZM8.50177 29.1113L6.14706 29.846L3.54578 27.8546L3.64244 25.3895L8.50177 29.1113ZM21.4831 18.0662C21.2462 18.0945 21.0385 18.2376 20.9275 18.4488L19.6014 20.9726L18.4049 18.3853C18.3728 18.3159 18.3296 18.2539 18.2792 18.1992C18.2768 18.1964 18.2742 18.1937 18.2718 18.1909C18.2635 18.1822 18.2555 18.1732 18.2468 18.165C18.2319 18.1505 18.2162 18.1365 18.1994 18.1236C18.1987 18.123 18.1978 18.1226 18.1971 18.122C18.1938 18.1194 18.191 18.1163 18.1876 18.1137C18.0956 18.0433 17.9867 17.9949 17.8692 17.9748L15.0591 17.4936L17.1499 15.5562C17.3252 15.394 17.4093 15.1562 17.375 14.9197L16.9642 12.0984L19.4532 13.4884C19.6615 13.6048 19.9138 13.6112 20.1277 13.5055L22.6839 12.2431L22.1311 15.0399C22.0849 15.2741 22.1567 15.5159 22.3234 15.6867L24.314 17.7277L21.4831 18.0662Z" fill="#8E8E93"/>
<path d="M10.8025 8.35188L10.2164 7.90296L10.6653 7.31684C10.8425 7.08558 10.7986 6.75466 10.5673 6.57753C10.3361 6.4004 10.0051 6.44427 9.828 6.67553L9.37909 7.26165L8.79297 6.81274C8.5617 6.63561 8.23079 6.67947 8.05366 6.91074C7.87653 7.14201 7.92039 7.47292 8.15166 7.65005L8.73778 8.09897L8.28886 8.68509C8.11173 8.91636 8.1556 9.24727 8.38687 9.4244C8.61813 9.60153 8.94905 9.55767 9.12618 9.3264L9.5751 8.74028L10.1612 9.18919C10.3925 9.36632 10.7234 9.32246 10.9005 9.09119C11.0777 8.85992 11.0338 8.52901 10.8025 8.35188Z" fill="#8E8E93"/>
<path d="M29.031 12.3055L28.5565 11.9421L28.9199 11.4677C29.097 11.2364 29.0532 10.9055 28.8219 10.7283C28.5906 10.5512 28.2597 10.5951 28.0826 10.8264L27.7192 11.3008L27.2447 10.9374C27.0134 10.7603 26.6825 10.8042 26.5054 11.0354C26.3282 11.2667 26.3722 11.5977 26.6034 11.7747L27.0779 12.1381L26.7145 12.6126C26.5373 12.8439 26.5812 13.1748 26.8125 13.3519C27.0437 13.5291 27.3746 13.4852 27.5518 13.2539L27.9152 12.7795L28.3897 13.1429C28.6209 13.32 28.9518 13.2761 29.129 13.0449C29.3061 12.8136 29.2622 12.4827 29.031 12.3055Z" fill="#8E8E93"/>
<path d="M15.5687 2.01858C15.7835 2.09808 15.7835 2.40192 15.5687 2.48142L14.3193 2.94373C14.2518 2.96872 14.1985 3.02197 14.1735 3.08951L13.7112 4.33888C13.6317 4.55371 13.3279 4.55371 13.2484 4.33888L12.7861 3.08951C12.7611 3.02197 12.7078 2.96872 12.6403 2.94373L11.3909 2.48142C11.1761 2.40192 11.1761 2.09808 11.3909 2.01858L12.6403 1.55627C12.7078 1.53128 12.7611 1.47803 12.7861 1.41049L13.2484 0.16112C13.3279 -0.0537067 13.6317 -0.0537068 13.7112 0.16112L14.1735 1.41049C14.1985 1.47803 14.2518 1.53128 14.3193 1.55627L15.5687 2.01858Z" fill="#8E8E93"/>
<path d="M20.0687 26.0186C20.2835 26.0981 20.2835 26.4019 20.0687 26.4814L18.8193 26.9437C18.7518 26.9687 18.6985 27.022 18.6735 27.0895L18.2112 28.3389C18.1317 28.5537 17.8279 28.5537 17.7484 28.3389L17.2861 27.0895C17.2611 27.022 17.2078 26.9687 17.1403 26.9437L15.8909 26.4814C15.6761 26.4019 15.6761 26.0981 15.8909 26.0186L17.1403 25.5563C17.2078 25.5313 17.2611 25.478 17.2861 25.4105L17.7484 24.1611C17.8279 23.9463 18.1317 23.9463 18.2112 24.1611L18.6735 25.4105C18.6985 25.478 18.7518 25.5313 18.8193 25.5563L20.0687 26.0186Z" fill="#8E8E93"/>
</svg>
