<svg width="25" height="30" viewBox="0 0 25 30" fill="none" xmlns="http://www.w3.org/2000/svg">
<path d="M24.5504 3.67035C24.4978 3.20834 24.3098 2.80687 24.012 2.45308C23.8606 2.27335 23.6752 2.13259 23.4902 1.99069C22.839 1.49273 22.1874 0.995535 21.5381 0.49493C21.1661 0.208113 20.7476 0.045028 20.2811 0.00151355C20.2448 0.00794612 20.2088 0.00340548 20.1725 0C20.1173 0.00529741 20.062 0.00491903 20.0068 0.000756773C19.972 0.00113516 19.9371 0.00151355 19.9023 0.00189193C19.9016 0.00454064 19.9001 0.00718934 19.8978 0.00945966C19.855 0.0355683 19.8062 0.0378387 19.7585 0.045028C19.2787 0.11957 18.8603 0.317088 18.5065 0.653852C18.3052 0.845316 18.1489 1.07197 17.9801 1.28878C17.8333 1.47722 17.6895 1.66831 17.5431 1.85712C17.4814 1.93658 17.4587 1.9415 17.3796 1.88134C17.1991 1.74361 17.0198 1.60474 16.8385 1.46814C16.5793 1.27289 16.2763 1.31754 16.0806 1.57409C15.2565 2.654 14.4282 3.73051 13.6041 4.81005C13.4554 5.00492 13.4368 5.20698 13.564 5.41736C13.5977 5.47336 13.5935 5.51801 13.5549 5.56607C13.5227 5.60617 13.4936 5.64855 13.466 5.69207C13.3218 5.91759 13.3789 6.21159 13.598 6.36976C13.8114 6.52414 14.1073 6.4863 14.2761 6.28273C14.2916 6.26419 14.3071 6.24565 14.3223 6.22673C14.4146 6.11246 14.4165 6.1117 14.53 6.19759C14.9065 6.48252 15.2803 6.77009 15.6538 7.0588C15.7 7.09475 15.7257 7.11934 15.7318 7.14545C15.7321 7.14583 15.7329 7.14621 15.7333 7.14659C15.7329 7.14697 15.7325 7.14734 15.7321 7.14772C15.7382 7.17799 15.7181 7.21016 15.6739 7.26389C15.5516 7.41108 15.6001 7.42508 15.3806 7.34146C14.8331 7.13221 14.3249 7.22681 13.8712 7.58552C13.4853 7.8905 13.3086 8.30558 13.3161 8.79295C13.3195 9.00976 13.368 9.22469 13.3945 9.44074C13.4191 9.64167 13.4452 9.84259 13.4739 10.0428C13.4838 10.112 13.4516 10.165 13.4119 10.2168C13.1621 10.5437 12.9124 10.8707 12.6619 11.1972C12.2975 11.6728 11.9339 12.1489 11.5691 12.6237C10.7473 13.6938 9.92806 14.7662 9.10696 15.8366C8.64117 16.4439 8.17651 17.0524 7.71109 17.6597C6.86843 18.7596 6.02652 19.86 5.18309 20.9596C4.78163 21.4829 4.38129 22.007 3.98058 22.5306C3.76755 22.8095 3.55527 23.0891 3.34035 23.3661C3.27451 23.4509 3.24121 23.455 3.16062 23.3937C2.78791 23.1092 2.41747 22.8216 2.04324 22.539C1.90324 22.4334 1.90702 22.4342 2.01486 22.2938C2.35049 21.8571 2.68499 21.4197 3.01948 20.9827C3.80123 19.9618 4.58297 18.9413 5.3651 17.9208C5.8343 17.3085 6.30236 16.6952 6.77194 16.0829C7.61158 14.9883 8.44933 13.8925 9.28859 12.7974C9.78541 12.1492 10.2811 11.4999 10.7775 10.8514C11.4855 9.92659 12.1938 9.00182 12.9026 8.0778C12.9862 7.96844 13.038 7.85341 13.0327 7.71076C13.0252 7.50492 12.9026 7.32746 12.7031 7.25481C12.5117 7.1848 12.2752 7.24459 12.1507 7.40086C11.9036 7.71076 11.6667 8.02861 11.4257 8.34305C10.5225 9.52248 9.61892 10.7015 8.71647 11.8813C7.81742 13.0562 6.91724 14.2304 6.01857 15.4053C5.45251 16.1454 4.8853 16.8847 4.31886 17.6245C3.57911 18.5898 2.83937 19.555 2.10076 20.521C1.6781 21.0739 1.25431 21.6255 0.83127 22.178C0.73743 22.3006 0.697699 22.4334 0.691267 22.5893C0.675753 22.9783 0.670077 23.368 0.642077 23.7566C0.630725 23.9133 0.630347 24.0707 0.626563 24.2273C0.620887 24.4722 0.610671 24.717 0.599697 24.961C0.583048 25.3258 0.581913 25.6917 0.551642 26.0561C0.53802 26.2184 0.541047 26.3822 0.536128 26.545C0.528939 26.7833 0.519101 27.0225 0.509263 27.2605C0.493749 27.6313 0.479749 28.0025 0.463857 28.3737C0.450613 28.6813 0.424126 28.9897 0.441532 29.2981C0.457424 29.5773 0.699213 29.8611 0.9883 29.9485C1.02841 29.9606 1.07192 29.9641 1.10636 29.9917C1.10863 29.9943 1.10976 29.997 1.11052 29.9992C1.1809 29.9996 1.2509 29.9996 1.32128 30C1.32204 29.997 1.32355 29.9943 1.32582 29.9913C1.47907 29.9262 1.64177 29.8888 1.79994 29.8388C2.32514 29.6735 2.85072 29.51 3.37668 29.3469C4.19134 29.0941 5.00487 28.8376 5.81992 28.5852C6.33717 28.4252 6.85405 28.2632 7.37017 28.1001C7.52001 28.0528 7.67099 28.0074 7.82007 27.9575C7.90596 27.9287 7.98202 27.8856 8.03802 27.816C8.19732 27.6181 8.35738 27.4202 8.49814 27.2083C8.60787 27.0429 8.58857 26.7936 8.46598 26.6369C8.33997 26.4757 8.12127 26.4042 7.92905 26.4651C7.81666 26.5007 7.72472 26.5665 7.6532 26.6623C7.57715 26.764 7.56087 26.7663 7.46514 26.6918C7.09962 26.408 6.73032 26.1283 6.3629 25.8468C6.34852 25.8359 6.33452 25.8241 6.3209 25.8124C6.23047 25.7371 6.22706 25.7212 6.29896 25.6274C6.72237 25.0753 7.14541 24.5229 7.56844 23.97C8.47317 22.788 9.37902 21.6066 10.2834 20.4242C10.7904 19.7609 11.2986 19.0983 11.8064 18.4354C11.9978 18.1856 12.1889 17.9359 12.3808 17.6862C12.4133 17.6438 12.447 17.6105 12.5064 17.6094C12.864 17.6014 13.2147 17.5303 13.5689 17.489C13.9291 17.4466 14.2882 17.3948 14.6484 17.3528C14.6798 17.349 14.7218 17.3293 14.74 17.3657C14.7555 17.3971 14.7245 17.4277 14.7048 17.4538C14.4381 17.8099 14.1656 18.1614 13.8951 18.5141C13.584 18.9197 13.2726 19.3253 12.9616 19.7313C12.1666 20.7689 11.3712 21.806 10.5774 22.8443C10.0866 23.4861 9.59395 24.1263 9.10469 24.7688C9.02334 24.8755 8.94463 24.9788 8.92988 25.1203C8.90944 25.3163 9.02258 25.5316 9.20572 25.6232C9.38659 25.7136 9.62724 25.6841 9.76384 25.546C9.93222 25.3754 10.065 25.1752 10.2103 24.986C11.0034 23.9511 11.7965 22.9158 12.5896 21.8806C13.0388 21.2945 13.4872 20.7083 13.9359 20.1222C14.53 19.3461 15.1191 18.5663 15.7215 17.797C15.8642 17.6147 16.0258 17.4451 16.1756 17.2673C16.2172 17.2177 16.2645 17.2132 16.3209 17.2427C16.386 17.2768 16.4443 17.3191 16.498 17.3683C16.8529 17.6922 17.2128 18.0108 17.5692 18.3336C17.9007 18.634 18.2344 18.9318 18.5655 19.2326C18.7063 19.3605 18.8425 19.4945 18.9957 19.6084C19.589 20.0496 20.4226 19.986 20.9482 19.4653C21.3372 19.0801 21.4545 18.6162 21.3777 18.0854C21.305 17.5859 21.2456 17.0845 21.1813 16.5839C21.1253 16.1492 21.067 15.7148 21.0114 15.28C20.9981 15.1752 20.9826 15.0704 20.9686 14.9656C20.938 14.7317 21.0451 14.5512 21.1957 14.3866C21.5812 13.9651 21.9619 13.5391 22.3444 13.1149C22.6441 12.7827 22.9404 12.4474 23.2446 12.1193C23.4542 11.8931 23.609 11.6369 23.6646 11.3293C23.7411 10.9062 23.6548 10.518 23.4104 10.165C23.2272 9.90011 22.982 9.71621 22.6778 9.61026C22.5715 9.57318 22.5635 9.54821 22.6347 9.4555C23.0206 8.95111 23.4069 8.44634 23.7937 7.94233C23.8746 7.83676 23.9549 7.73044 24.0347 7.62373C24.2122 7.38611 24.1728 7.08945 23.939 6.90707C23.7721 6.7769 23.6045 6.64749 23.4353 6.5196C23.2889 6.40873 23.2874 6.40798 23.402 6.25889C23.6234 5.97094 23.8428 5.68185 24.0642 5.3939C24.3033 5.08324 24.4566 4.73551 24.5217 4.3488C24.5251 4.32799 24.5266 4.30642 24.5398 4.28863C24.5425 4.28598 24.5455 4.28447 24.5482 4.28371C24.5448 4.25307 24.5406 4.22242 24.5641 4.19631C24.5641 4.04495 24.5641 3.8936 24.5641 3.74224C24.5406 3.72332 24.547 3.69646 24.5504 3.67035ZM1.49685 28.8486C1.47604 28.7472 1.50934 27.7263 1.54642 27.3225C2.01676 27.6828 2.47649 28.0343 2.95099 28.3975C2.45606 28.5508 1.97665 28.6995 1.49685 28.8486ZM6.48361 27.2423C6.49534 27.2514 6.50934 27.2586 6.51615 27.287C6.26868 27.3642 6.02387 27.4402 5.77943 27.5166C5.27769 27.6729 4.77557 27.8284 4.27459 27.9874C4.21367 28.0067 4.17015 28.0025 4.11794 27.9624C3.29797 27.332 2.47687 26.7035 1.65426 26.0761C1.60772 26.0406 1.59145 26.0054 1.5941 25.9475C1.61907 25.3614 1.64177 24.7752 1.66448 24.1891C1.67242 23.9897 1.6728 23.7903 1.69059 23.5916C1.69361 23.5901 1.69588 23.5882 1.69853 23.5875C1.70118 23.5867 1.70534 23.5856 1.70686 23.5871C3.29911 24.8051 4.89136 26.0235 6.48361 27.2423ZM11.0049 16.1666C11.0231 16.5362 11.1601 16.8598 11.406 17.1364C11.4594 17.1965 11.4662 17.1844 11.4132 17.2533C9.86601 19.2731 8.31916 21.2929 6.77194 23.3128C6.33604 23.8819 5.90014 24.4513 5.46424 25.0204C5.45326 25.0348 5.44229 25.0492 5.43132 25.0636C5.41732 25.0814 5.4018 25.081 5.3844 25.0681C5.37002 25.0571 5.35526 25.0465 5.34088 25.0356C4.9519 24.7374 4.56292 24.4396 4.17394 24.1414C4.16675 24.1358 4.15956 24.1301 4.15237 24.1248C4.09107 24.0813 4.09712 24.0798 4.13723 24.0279C4.22578 23.9129 4.31394 23.7975 4.4021 23.6821C5.95803 21.6501 7.51433 19.6178 9.07026 17.5859C10.5766 15.6187 12.0834 13.6518 13.5901 11.6846C13.6045 11.6657 13.6207 11.6479 13.6518 11.6104C13.6722 11.7644 13.6907 11.8984 13.7078 12.0323C13.7161 12.0982 13.7248 12.1644 13.729 12.2306C13.7388 12.3963 13.6813 12.5386 13.5708 12.6612C13.3097 12.951 13.0486 13.2416 12.7875 13.5315C12.3259 14.0442 11.8631 14.5558 11.4026 15.0696C11.123 15.3814 10.9845 15.7473 11.0049 16.1666ZM22.7451 10.8763C22.8076 11.0875 22.7618 11.2767 22.6142 11.4409C22.3815 11.6993 22.1488 11.9582 21.9161 12.2166C21.4223 12.7653 20.9255 13.3113 20.4355 13.8633C20.1256 14.2126 20 14.6239 20.059 15.0889C20.1331 15.6735 20.2077 16.2581 20.2837 16.8424C20.3466 17.3278 20.4116 17.8129 20.4752 18.2984C20.4794 18.3313 20.4801 18.3646 20.4828 18.399C20.4748 18.634 20.3659 18.8092 20.157 18.9148C19.9451 19.0219 19.7347 19.0113 19.5417 18.8667C19.4551 18.8017 19.3768 18.7248 19.2958 18.6518C18.5538 17.984 17.8136 17.3142 17.0701 16.6479C16.7504 16.3614 16.3708 16.2324 15.9437 16.2596C15.7389 16.2729 15.5358 16.3085 15.3318 16.3349C15.0291 16.3739 14.7268 16.414 14.4241 16.4538C14.1153 16.4939 13.8069 16.5344 13.4981 16.5745C13.2045 16.6127 12.9109 16.652 12.6173 16.688C12.1761 16.7421 11.9293 16.3592 11.9483 16.0644C11.9573 15.9225 12.0149 15.8026 12.1087 15.6981C12.3297 15.4533 12.5499 15.2081 12.7705 14.9629C13.2802 14.3961 13.7937 13.8327 14.2984 13.2613C14.6106 12.9079 14.7199 12.4883 14.6575 12.0217C14.6045 11.6263 14.5565 11.2305 14.505 10.8347C14.4536 10.4393 14.401 10.0439 14.3491 9.64848C14.3124 9.36696 14.2742 9.08544 14.2405 8.80316C14.2061 8.51559 14.4082 8.24353 14.7029 8.17466C14.8895 8.13115 15.059 8.17088 15.2031 8.29499C15.3795 8.4471 15.5509 8.60489 15.7238 8.76078C16.3693 9.34161 17.0118 9.92546 17.6608 10.5021C18.0161 10.8181 18.4376 10.9308 18.9072 10.8688C19.2038 10.8298 19.5005 10.7916 19.7971 10.7534C20.0998 10.7144 20.4026 10.6762 20.7053 10.6368C20.9629 10.6035 21.2206 10.5691 21.4783 10.5354C21.6849 10.5086 21.8926 10.4874 22.0985 10.4556C22.3929 10.4102 22.6623 10.596 22.7451 10.8763ZM16.4011 8.01423C16.4446 7.95633 16.4889 7.89882 16.5336 7.84168C16.5725 7.79211 16.574 7.79174 16.6232 7.8292C16.8491 8.00174 17.0746 8.17428 17.3002 8.34721C17.4704 8.47775 17.6411 8.60792 17.811 8.73884C17.8348 8.757 17.8617 8.77176 17.8825 8.80468C17.7909 8.92463 17.6979 9.04647 17.6067 9.16566C17.5768 9.16793 17.5647 9.14825 17.5499 9.13463C17.1768 8.799 16.8041 8.46299 16.4314 8.12737C16.4246 8.12131 16.4178 8.11526 16.4113 8.1092C16.3648 8.0638 16.3644 8.06342 16.4011 8.01423ZM18.3994 9.86946C18.5091 9.72605 18.6166 9.58605 18.7274 9.44074C18.9091 9.57999 19.0858 9.71508 19.2685 9.85508C19.219 9.89027 19.1694 9.88043 19.1244 9.88686C18.9874 9.90654 18.8497 9.92508 18.7119 9.93795C18.6056 9.94854 18.5023 9.93151 18.3994 9.86946ZM23.2465 4.76616C23.0077 5.0787 22.7686 5.39087 22.5291 5.70304C22.4844 5.76131 22.4837 5.76131 22.4265 5.71818C22.3418 5.65461 22.2597 5.58763 22.1727 5.52747C22.0474 5.4412 21.907 5.41055 21.7579 5.44233C21.5457 5.48736 21.4076 5.6198 21.3557 5.82829C21.302 6.04435 21.3671 6.23089 21.5411 6.37089C21.7227 6.51657 21.9104 6.65506 22.0951 6.79658C22.3425 6.98615 22.59 7.17534 22.8371 7.36492C22.909 7.42016 22.9033 7.40881 22.853 7.47427C22.3898 8.07969 21.9256 8.68435 21.4617 9.28939C21.3898 9.38285 21.316 9.47518 21.2464 9.57053C21.2187 9.60837 21.1873 9.62464 21.1412 9.6288C21.0451 9.63751 20.9486 9.64886 20.8536 9.66588C20.7942 9.67648 20.7507 9.65945 20.7049 9.62426C20.2421 9.2682 19.7778 8.91441 19.3143 8.55948C17.8227 7.41751 16.3315 6.27516 14.8403 5.13281C14.8043 5.10519 14.7691 5.07719 14.7268 5.04427C14.9076 4.80778 15.0821 4.57923 15.2565 4.35107C15.6852 3.79143 16.1135 3.2318 16.5423 2.67217C16.5479 2.66498 16.5529 2.65741 16.5585 2.6506C16.6043 2.59233 16.6051 2.59157 16.6626 2.63546C16.8094 2.74709 16.9558 2.85985 17.1023 2.97185C17.979 3.64311 18.8557 4.31436 19.7317 4.98676C19.8702 5.09308 20.0223 5.13546 20.1914 5.09611C20.3984 5.04805 20.5335 4.91524 20.5842 4.71091C20.6368 4.49902 20.574 4.3155 20.406 4.1736C20.3182 4.09944 20.2243 4.03284 20.1331 3.96284C19.5497 3.51559 18.9662 3.06872 18.3827 2.62146C18.3661 2.6086 18.3491 2.59611 18.3324 2.58287C18.315 2.56924 18.3142 2.55297 18.3275 2.53595C18.3366 2.52384 18.346 2.51211 18.3551 2.5C18.5961 2.18556 18.8345 1.86885 19.0786 1.55668C19.3722 1.1817 19.7623 1.01937 20.2338 1.06062C20.4771 1.08181 20.6939 1.17943 20.888 1.32889C21.2759 1.6282 21.666 1.92523 22.055 2.22302C22.3721 2.46595 22.6895 2.70811 23.0059 2.95179C23.5867 3.39867 23.6907 4.18382 23.2465 4.76616Z" fill="url(#paint0_linear_4774_35848)"/>
<path d="M5.27807 8.70819C5.47067 8.37256 5.97657 8.4577 6.04884 8.8376L6.28723 10.0919C6.30993 10.2115 6.38371 10.3148 6.48928 10.3754L7.59682 11.0107C7.93245 11.2033 7.84731 11.7092 7.46741 11.7814L6.21306 12.0198C6.09349 12.0425 5.99019 12.1163 5.92927 12.2219L5.29396 13.3294C5.10136 13.6651 4.59546 13.5799 4.52319 13.2L4.2848 11.9457C4.2621 11.8261 4.18832 11.7228 4.08275 11.6623L2.97521 11.0269C2.63958 10.8343 2.72472 10.3284 3.10462 10.2562L4.35897 10.0178C4.47854 9.99508 4.58184 9.9213 4.64276 9.81573L5.27807 8.70819Z" fill="url(#paint1_linear_4774_35848)"/>
<path d="M2.29449 16.6384C2.21125 16.5627 2.26687 16.4246 2.37925 16.4277L2.75007 16.4382C2.78526 16.4394 2.81931 16.4246 2.84315 16.3985L3.09251 16.1238C3.16819 16.0406 3.3063 16.0962 3.30327 16.2086L3.29267 16.5794C3.29154 16.6146 3.3063 16.6486 3.33241 16.6725L3.60711 16.9218C3.69036 16.9975 3.63474 17.1356 3.52236 17.1326L3.15154 17.122C3.11635 17.1209 3.08229 17.1356 3.05845 17.1617L2.8091 17.4364C2.73342 17.5197 2.59531 17.4641 2.59834 17.3517L2.60893 16.9809C2.61007 16.9457 2.59531 16.9116 2.5692 16.8878L2.29449 16.6384Z" fill="url(#paint2_linear_4774_35848)"/>
<path d="M11.9456 5.90851C11.8968 5.8071 12.0005 5.70002 12.1034 5.74504L12.4432 5.89413C12.4757 5.90813 12.5124 5.90775 12.5442 5.89224L12.8787 5.73142C12.9801 5.68261 13.0872 5.78629 13.0422 5.88921L12.8931 6.229C12.8787 6.26154 12.8795 6.29824 12.895 6.33003L13.0558 6.66414C13.1046 6.76555 13.0009 6.87263 12.898 6.82761L12.5582 6.67852C12.5257 6.66452 12.489 6.6649 12.4572 6.68041L12.1227 6.84123C12.0213 6.89004 11.9142 6.78636 11.9592 6.68344L12.1083 6.34365C12.1227 6.31111 12.1219 6.27441 12.1064 6.24262L11.9456 5.90851Z" fill="url(#paint3_linear_4774_35848)"/>
<path d="M13.3475 21.9608C13.3146 21.8045 13.4936 21.6918 13.6204 21.789L14.0385 22.1095C14.0782 22.1402 14.1293 22.1515 14.1785 22.1413L14.6938 22.0327C14.8501 21.9998 14.9629 22.1787 14.8656 22.3055L14.5451 22.7236C14.5145 22.7634 14.5031 22.8144 14.5133 22.8636L14.6219 23.379C14.6549 23.5353 14.4759 23.648 14.3491 23.5508L13.931 23.2303C13.8913 23.1996 13.8402 23.1883 13.791 23.1985L13.2756 23.3071C13.1194 23.34 13.0066 23.161 13.1039 23.0343L13.4244 22.6162C13.455 22.5764 13.4664 22.5254 13.4561 22.4762L13.3475 21.9608Z" fill="url(#paint4_linear_4774_35848)"/>
<defs>
<linearGradient id="paint0_linear_4774_35848" x1="12.4999" y1="0" x2="12.4999" y2="30" gradientUnits="userSpaceOnUse">
<stop stop-color="#FF0049"/>
<stop offset="0.25" stop-color="#FFBE3B"/>
<stop offset="0.5" stop-color="#00BB5C"/>
<stop offset="0.75" stop-color="#187DC4"/>
<stop offset="1" stop-color="#58268B"/>
</linearGradient>
<linearGradient id="paint1_linear_4774_35848" x1="12.4999" y1="0" x2="12.4999" y2="30" gradientUnits="userSpaceOnUse">
<stop stop-color="#FF0049"/>
<stop offset="0.25" stop-color="#FFBE3B"/>
<stop offset="0.5" stop-color="#00BB5C"/>
<stop offset="0.75" stop-color="#187DC4"/>
<stop offset="1" stop-color="#58268B"/>
</linearGradient>
<linearGradient id="paint2_linear_4774_35848" x1="12.4999" y1="0" x2="12.4999" y2="30" gradientUnits="userSpaceOnUse">
<stop stop-color="#FF0049"/>
<stop offset="0.25" stop-color="#FFBE3B"/>
<stop offset="0.5" stop-color="#00BB5C"/>
<stop offset="0.75" stop-color="#187DC4"/>
<stop offset="1" stop-color="#58268B"/>
</linearGradient>
<linearGradient id="paint3_linear_4774_35848" x1="12.4999" y1="0" x2="12.4999" y2="30" gradientUnits="userSpaceOnUse">
<stop stop-color="#FF0049"/>
<stop offset="0.25" stop-color="#FFBE3B"/>
<stop offset="0.5" stop-color="#00BB5C"/>
<stop offset="0.75" stop-color="#187DC4"/>
<stop offset="1" stop-color="#58268B"/>
</linearGradient>
<linearGradient id="paint4_linear_4774_35848" x1="12.4999" y1="0" x2="12.4999" y2="30" gradientUnits="userSpaceOnUse">
<stop stop-color="#FF0049"/>
<stop offset="0.25" stop-color="#FFBE3B"/>
<stop offset="0.5" stop-color="#00BB5C"/>
<stop offset="0.75" stop-color="#187DC4"/>
<stop offset="1" stop-color="#58268B"/>
</linearGradient>
</defs>
</svg>
