<svg width="26" height="30" viewBox="0 0 26 30" fill="none" xmlns="http://www.w3.org/2000/svg">
<path d="M25.0521 3.67035C24.9995 3.20834 24.8115 2.80687 24.5137 2.45308C24.3623 2.27335 24.1769 2.13259 23.9919 1.99069C23.3407 1.49273 22.6891 0.995535 22.0398 0.49493C21.6679 0.208113 21.2494 0.045028 20.7828 0.00151355C20.7465 0.00794612 20.7105 0.00340548 20.6742 0C20.619 0.00529741 20.5637 0.00491903 20.5085 0.000756773C20.4737 0.00113516 20.4389 0.00151355 20.404 0.00189193C20.4033 0.00454064 20.4018 0.00718934 20.3995 0.00945966C20.3567 0.0355683 20.3079 0.0378387 20.2603 0.045028C19.7805 0.11957 19.362 0.317088 19.0082 0.653852C18.8069 0.845316 18.6506 1.07197 18.4818 1.28878C18.335 1.47722 18.1912 1.66831 18.0448 1.85712C17.9831 1.93658 17.9604 1.9415 17.8813 1.88134C17.7008 1.74361 17.5215 1.60474 17.3402 1.46814C17.081 1.27289 16.778 1.31754 16.5823 1.57409C15.7582 2.654 14.9299 3.73051 14.1058 4.81005C13.9571 5.00492 13.9385 5.20698 14.0657 5.41736C14.0994 5.47336 14.0952 5.51801 14.0566 5.56607C14.0244 5.60617 13.9953 5.64855 13.9677 5.69207C13.8235 5.91759 13.8807 6.21159 14.0997 6.36976C14.3132 6.52414 14.6091 6.4863 14.7778 6.28273C14.7933 6.26419 14.8088 6.24565 14.824 6.22673C14.9163 6.11246 14.9182 6.1117 15.0317 6.19759C15.4082 6.48252 15.782 6.77009 16.1555 7.0588C16.2017 7.09475 16.2274 7.11934 16.2335 7.14545C16.2338 7.14583 16.2346 7.14621 16.235 7.14659C16.2346 7.14697 16.2342 7.14734 16.2338 7.14772C16.2399 7.17799 16.2198 7.21016 16.1756 7.26389C16.0534 7.41108 16.1018 7.42508 15.8823 7.34146C15.3348 7.13221 14.8266 7.22681 14.3729 7.58552C13.987 7.8905 13.8103 8.30558 13.8178 8.79295C13.8212 9.00976 13.8697 9.22469 13.8962 9.44074C13.9208 9.64167 13.9469 9.84259 13.9756 10.0428C13.9855 10.112 13.9533 10.165 13.9136 10.2168C13.6638 10.5437 13.4141 10.8707 13.1636 11.1972C12.7992 11.6728 12.4356 12.1489 12.0708 12.6237C11.249 13.6938 10.4298 14.7662 9.60867 15.8366C9.14288 16.4439 8.67822 17.0524 8.2128 17.6597C7.37014 18.7596 6.52823 19.86 5.6848 20.9596C5.28333 21.4829 4.883 22.007 4.48229 22.5306C4.26926 22.8095 4.05698 23.0891 3.84206 23.3661C3.77622 23.4509 3.74292 23.455 3.66233 23.3937C3.28962 23.1092 2.91918 22.8216 2.54495 22.539C2.40495 22.4334 2.40873 22.4342 2.51657 22.2938C2.8522 21.8571 3.18669 21.4197 3.52119 20.9827C4.30294 19.9618 5.08468 18.9413 5.86681 17.9208C6.33601 17.3085 6.80407 16.6952 7.27365 16.0829C8.11329 14.9883 8.95104 13.8925 9.7903 12.7974C10.2871 12.1492 10.7828 11.4999 11.2792 10.8514C11.9872 9.92659 12.6955 9.00182 13.4043 8.0778C13.4879 7.96844 13.5397 7.85341 13.5344 7.71076C13.5269 7.50492 13.4043 7.32746 13.2049 7.25481C13.0134 7.1848 12.7769 7.24459 12.6524 7.40086C12.4053 7.71076 12.1685 8.02861 11.9274 8.34305C11.0242 9.52248 10.1206 10.7015 9.21818 11.8813C8.31913 13.0562 7.41895 14.2304 6.52028 15.4053C5.95421 16.1454 5.38701 16.8847 4.82057 17.6245C4.08082 18.5898 3.34108 19.555 2.60247 20.521C2.17981 21.0739 1.75602 21.6255 1.33298 22.178C1.23914 22.3006 1.19941 22.4334 1.19298 22.5893C1.17746 22.9783 1.17179 23.368 1.14379 23.7566C1.13243 23.9133 1.13206 24.0707 1.12827 24.2273C1.1226 24.4722 1.11238 24.717 1.10141 24.961C1.08476 25.3258 1.08362 25.6917 1.05335 26.0561C1.03973 26.2184 1.04276 26.3822 1.03784 26.545C1.03065 26.7833 1.02081 27.0225 1.01097 27.2605C0.995458 27.6313 0.981458 28.0025 0.965566 28.3737C0.952322 28.6813 0.925835 28.9897 0.943241 29.2981C0.959133 29.5773 1.20092 29.8611 1.49001 29.9485C1.53012 29.9606 1.57363 29.9641 1.60807 29.9917C1.61034 29.9943 1.61147 29.997 1.61223 29.9992C1.68261 29.9996 1.75261 29.9996 1.82299 30C1.82375 29.997 1.82526 29.9943 1.82753 29.9913C1.98078 29.9262 2.14348 29.8888 2.30165 29.8388C2.82685 29.6735 3.35243 29.51 3.87839 29.3469C4.69305 29.0941 5.50658 28.8376 6.32163 28.5852C6.83888 28.4252 7.35576 28.2632 7.87188 28.1001C8.02172 28.0528 8.17269 28.0074 8.32178 27.9575C8.40767 27.9287 8.48373 27.8856 8.53973 27.816C8.69903 27.6181 8.85909 27.4202 8.99985 27.2083C9.10958 27.0429 9.09028 26.7936 8.96768 26.6369C8.84168 26.4757 8.62297 26.4042 8.43075 26.4651C8.31837 26.5007 8.22643 26.5665 8.15491 26.6623C8.07885 26.764 8.06258 26.7663 7.96685 26.6918C7.60133 26.408 7.23203 26.1283 6.86461 25.8468C6.85023 25.8359 6.83623 25.8241 6.82261 25.8124C6.73218 25.7371 6.72877 25.7212 6.80066 25.6274C7.22408 25.0753 7.64712 24.5229 8.07015 23.97C8.97487 22.788 9.88073 21.6066 10.7851 20.4242C11.2921 19.7609 11.8003 19.0983 12.3081 18.4354C12.4995 18.1856 12.6906 17.9359 12.8825 17.6862C12.915 17.6438 12.9487 17.6105 13.0081 17.6094C13.3657 17.6014 13.7164 17.5303 14.0706 17.489C14.4308 17.4466 14.7899 17.3948 15.1501 17.3528C15.1815 17.349 15.2235 17.3293 15.2417 17.3657C15.2572 17.3971 15.2262 17.4277 15.2065 17.4538C14.9398 17.8099 14.6673 18.1614 14.3968 18.5141C14.0857 18.9197 13.7743 19.3253 13.4633 19.7313C12.6683 20.7689 11.8729 21.806 11.0791 22.8443C10.5883 23.4861 10.0957 24.1263 9.6064 24.7688C9.52505 24.8755 9.44634 24.9788 9.43159 25.1203C9.41115 25.3163 9.52429 25.5316 9.70743 25.6232C9.8883 25.7136 10.129 25.6841 10.2656 25.546C10.4339 25.3754 10.5667 25.1752 10.712 24.986C11.5051 23.9511 12.2982 22.9158 13.0913 21.8806C13.5405 21.2945 13.9889 20.7083 14.4376 20.1222C15.0317 19.3461 15.6209 18.5663 16.2232 17.797C16.3659 17.6147 16.5275 17.4451 16.6773 17.2673C16.7189 17.2177 16.7662 17.2132 16.8226 17.2427C16.8877 17.2768 16.946 17.3191 16.9997 17.3683C17.3546 17.6922 17.7145 18.0108 18.0709 18.3336C18.4024 18.634 18.7361 18.9318 19.0672 19.2326C19.208 19.3605 19.3442 19.4945 19.4974 19.6084C20.0907 20.0496 20.9243 19.986 21.4499 19.4653C21.8389 19.0801 21.9562 18.6162 21.8794 18.0854C21.8067 17.5859 21.7473 17.0845 21.683 16.5839C21.627 16.1492 21.5687 15.7148 21.5131 15.28C21.4998 15.1752 21.4843 15.0704 21.4703 14.9656C21.4397 14.7317 21.5468 14.5512 21.6974 14.3866C22.0829 13.9651 22.4636 13.5391 22.8461 13.1149C23.1458 12.7827 23.4421 12.4474 23.7463 12.1193C23.956 11.8931 24.1107 11.6369 24.1663 11.3293C24.2428 10.9062 24.1565 10.518 23.9121 10.165C23.7289 9.90011 23.4837 9.71621 23.1795 9.61026C23.0732 9.57318 23.0652 9.54821 23.1364 9.4555C23.5223 8.95111 23.9087 8.44634 24.2954 7.94233C24.3763 7.83676 24.4566 7.73044 24.5364 7.62373C24.7139 7.38611 24.6745 7.08945 24.4407 6.90707C24.2738 6.7769 24.1062 6.64749 23.937 6.5196C23.7906 6.40873 23.7891 6.40798 23.9037 6.25889C24.1251 5.97094 24.3446 5.68185 24.5659 5.3939C24.8051 5.08324 24.9583 4.73551 25.0234 4.3488C25.0268 4.32799 25.0283 4.30642 25.0415 4.28863C25.0442 4.28598 25.0472 4.28447 25.0499 4.28371C25.0465 4.25307 25.0423 4.22242 25.0658 4.19631C25.0658 4.04495 25.0658 3.8936 25.0658 3.74224C25.0423 3.72332 25.0487 3.69646 25.0521 3.67035ZM1.99856 28.8486C1.97775 28.7472 2.01105 27.7263 2.04813 27.3225C2.51846 27.6828 2.9782 28.0343 3.4527 28.3975C2.95777 28.5508 2.47836 28.6995 1.99856 28.8486ZM6.98532 27.2423C6.99705 27.2514 7.01105 27.2586 7.01786 27.287C6.77039 27.3642 6.52558 27.4402 6.28114 27.5166C5.7794 27.6729 5.27728 27.8284 4.7763 27.9874C4.71538 28.0067 4.67186 28.0025 4.61964 27.9624C3.79968 27.332 2.97858 26.7035 2.15597 26.0761C2.10943 26.0406 2.09316 26.0054 2.09581 25.9475C2.12078 25.3614 2.14348 24.7752 2.16619 24.1891C2.17413 23.9897 2.17451 23.7903 2.19229 23.5916C2.19532 23.5901 2.19759 23.5882 2.20024 23.5875C2.20289 23.5867 2.20705 23.5856 2.20857 23.5871C3.80082 24.8051 5.39307 26.0235 6.98532 27.2423ZM11.5067 16.1666C11.5248 16.5362 11.6618 16.8598 11.9077 17.1364C11.9611 17.1965 11.9679 17.1844 11.9149 17.2533C10.3677 19.2731 8.82087 21.2929 7.27365 23.3128C6.83775 23.8819 6.40185 24.4513 5.96594 25.0204C5.95497 25.0348 5.944 25.0492 5.93302 25.0636C5.91902 25.0814 5.90351 25.081 5.8861 25.0681C5.87173 25.0571 5.85697 25.0465 5.84259 25.0356C5.45361 24.7374 5.06463 24.4396 4.67565 24.1414C4.66846 24.1358 4.66127 24.1301 4.65408 24.1248C4.59278 24.0813 4.59883 24.0798 4.63894 24.0279C4.72748 23.9129 4.81565 23.7975 4.90381 23.6821C6.45974 21.6501 8.01604 19.6178 9.57197 17.5859C11.0783 15.6187 12.5851 13.6518 14.0918 11.6846C14.1062 11.6657 14.1224 11.6479 14.1535 11.6104C14.1739 11.7644 14.1924 11.8984 14.2095 12.0323C14.2178 12.0982 14.2265 12.1644 14.2307 12.2306C14.2405 12.3963 14.183 12.5386 14.0725 12.6612C13.8114 12.951 13.5503 13.2416 13.2892 13.5315C12.8276 14.0442 12.3648 14.5558 11.9043 15.0696C11.6247 15.3814 11.4862 15.7473 11.5067 16.1666ZM23.2469 10.8763C23.3093 11.0875 23.2635 11.2767 23.1159 11.4409C22.8832 11.6993 22.6505 11.9582 22.4178 12.2166C21.924 12.7653 21.4272 13.3113 20.9372 13.8633C20.6273 14.2126 20.5017 14.6239 20.5607 15.0889C20.6349 15.6735 20.7094 16.2581 20.7855 16.8424C20.8483 17.3278 20.9133 17.8129 20.9769 18.2984C20.9811 18.3313 20.9818 18.3646 20.9845 18.399C20.9765 18.634 20.8676 18.8092 20.6587 18.9148C20.4468 19.0219 20.2364 19.0113 20.0434 18.8667C19.9568 18.8017 19.8785 18.7248 19.7975 18.6518C19.0555 17.984 18.3153 17.3142 17.5718 16.6479C17.2521 16.3614 16.8726 16.2324 16.4454 16.2596C16.2407 16.2729 16.0375 16.3085 15.8335 16.3349C15.5308 16.3739 15.2285 16.414 14.9258 16.4538C14.617 16.4939 14.3086 16.5344 13.9998 16.5745C13.7062 16.6127 13.4126 16.652 13.119 16.688C12.6778 16.7421 12.4311 16.3592 12.45 16.0644C12.4591 15.9225 12.5166 15.8026 12.6104 15.6981C12.8314 15.4533 13.0516 15.2081 13.2722 14.9629C13.7819 14.3961 14.2954 13.8327 14.8001 13.2613C15.1123 12.9079 15.2217 12.4883 15.1592 12.0217C15.1062 11.6263 15.0582 11.2305 15.0067 10.8347C14.9553 10.4393 14.9027 10.0439 14.8508 9.64848C14.8141 9.36696 14.7759 9.08544 14.7422 8.80316C14.7078 8.51559 14.9099 8.24353 15.2046 8.17466C15.3912 8.13115 15.5607 8.17088 15.7049 8.29499C15.8812 8.4471 16.0526 8.60489 16.2255 8.76078C16.871 9.34161 17.5135 9.92546 18.1625 10.5021C18.5178 10.8181 18.9393 10.9308 19.4089 10.8688C19.7055 10.8298 20.0022 10.7916 20.2988 10.7534C20.6016 10.7144 20.9043 10.6762 21.207 10.6368C21.4647 10.6035 21.7223 10.5691 21.98 10.5354C22.1866 10.5086 22.3944 10.4874 22.6002 10.4556C22.8946 10.4102 23.164 10.596 23.2469 10.8763ZM16.9028 8.01423C16.9463 7.95633 16.9906 7.89882 17.0353 7.84168C17.0742 7.79211 17.0758 7.79174 17.1249 7.8292C17.3508 8.00174 17.5764 8.17428 17.8019 8.34721C17.9721 8.47775 18.1428 8.60792 18.3127 8.73884C18.3365 8.757 18.3634 8.77176 18.3842 8.80468C18.2926 8.92463 18.1996 9.04647 18.1084 9.16566C18.0785 9.16793 18.0664 9.14825 18.0516 9.13463C17.6785 8.799 17.3058 8.46299 16.9331 8.12737C16.9263 8.12131 16.9195 8.11526 16.913 8.1092C16.8665 8.0638 16.8661 8.06342 16.9028 8.01423ZM18.9011 9.86946C19.0108 9.72605 19.1183 9.58605 19.2291 9.44074C19.4108 9.57999 19.5875 9.71508 19.7702 9.85508C19.7207 9.89027 19.6711 9.88043 19.6261 9.88686C19.4891 9.90654 19.3514 9.92508 19.2136 9.93795C19.1073 9.94854 19.004 9.93151 18.9011 9.86946ZM23.7482 4.76616C23.5095 5.0787 23.2703 5.39087 23.0308 5.70304C22.9862 5.76131 22.9854 5.76131 22.9283 5.71818C22.8435 5.65461 22.7614 5.58763 22.6744 5.52747C22.5491 5.4412 22.4087 5.41055 22.2596 5.44233C22.0474 5.48736 21.9093 5.6198 21.8574 5.82829C21.8037 6.04435 21.8688 6.23089 22.0428 6.37089C22.2245 6.51657 22.4121 6.65506 22.5968 6.79658C22.8443 6.98615 23.0917 7.17534 23.3388 7.36492C23.4107 7.42016 23.405 7.40881 23.3547 7.47427C22.8916 8.07969 22.4273 8.68435 21.9634 9.28939C21.8915 9.38285 21.8177 9.47518 21.7481 9.57053C21.7204 9.60837 21.689 9.62464 21.6429 9.6288C21.5468 9.63751 21.4503 9.64886 21.3553 9.66588C21.2959 9.67648 21.2524 9.65945 21.2066 9.62426C20.7438 9.2682 20.2796 8.91441 19.816 8.55948C18.3244 7.41751 16.8332 6.27516 15.342 5.13281C15.306 5.10519 15.2708 5.07719 15.2285 5.04427C15.4093 4.80778 15.5838 4.57923 15.7582 4.35107C16.1869 3.79143 16.6153 3.2318 17.044 2.67217C17.0496 2.66498 17.0546 2.65741 17.0602 2.6506C17.106 2.59233 17.1068 2.59157 17.1643 2.63546C17.3111 2.74709 17.4575 2.85985 17.604 2.97185C18.4807 3.64311 19.3574 4.31436 20.2334 4.98676C20.3719 5.09308 20.524 5.13546 20.6931 5.09611C20.9001 5.04805 21.0352 4.91524 21.0859 4.71091C21.1385 4.49902 21.0757 4.3155 20.9077 4.1736C20.8199 4.09944 20.726 4.03284 20.6349 3.96284C20.0514 3.51559 19.4679 3.06872 18.8844 2.62146C18.8678 2.6086 18.8508 2.59611 18.8341 2.58287C18.8167 2.56924 18.816 2.55297 18.8292 2.53595C18.8383 2.52384 18.8477 2.51211 18.8568 2.5C19.0978 2.18556 19.3362 1.86885 19.5803 1.55668C19.8739 1.1817 20.264 1.01937 20.7355 1.06062C20.9788 1.08181 21.1956 1.17943 21.3897 1.32889C21.7776 1.6282 22.1677 1.92523 22.5567 2.22302C22.8738 2.46595 23.1912 2.70811 23.5076 2.95179C24.0884 3.39867 24.1924 4.18382 23.7482 4.76616Z" fill="url(#paint0_linear_8608_164768)"/>
<path d="M5.77978 8.70819C5.97238 8.37256 6.47828 8.4577 6.55055 8.8376L6.78894 10.0919C6.81164 10.2115 6.88542 10.3148 6.99099 10.3754L8.09853 11.0107C8.43416 11.2033 8.34902 11.7092 7.96912 11.7814L6.71477 12.0198C6.5952 12.0425 6.4919 12.1163 6.43098 12.2219L5.79567 13.3294C5.60307 13.6651 5.09717 13.5799 5.0249 13.2L4.78651 11.9457C4.76381 11.8261 4.69002 11.7228 4.58445 11.6623L3.47692 11.0269C3.14129 10.8343 3.22643 10.3284 3.60633 10.2562L4.86068 10.0178C4.98025 9.99508 5.08355 9.9213 5.14447 9.81573L5.77978 8.70819Z" fill="url(#paint1_linear_8608_164768)"/>
<path d="M2.7962 16.6384C2.71295 16.5627 2.76858 16.4246 2.88096 16.4277L3.25178 16.4382C3.28697 16.4394 3.32102 16.4246 3.34486 16.3985L3.59422 16.1238C3.66989 16.0406 3.80801 16.0962 3.80498 16.2086L3.79438 16.5794C3.79325 16.6146 3.80801 16.6486 3.83411 16.6725L4.10882 16.9218C4.19207 16.9975 4.13645 17.1356 4.02406 17.1326L3.65325 17.122C3.61806 17.1209 3.584 17.1356 3.56016 17.1617L3.31081 17.4364C3.23513 17.5197 3.09702 17.4641 3.10004 17.3517L3.11064 16.9809C3.11177 16.9457 3.09702 16.9116 3.07091 16.8878L2.7962 16.6384Z" fill="url(#paint2_linear_8608_164768)"/>
<path d="M12.4473 5.90851C12.3985 5.8071 12.5022 5.70002 12.6051 5.74504L12.9449 5.89413C12.9774 5.90813 13.0142 5.90775 13.0459 5.89224L13.3804 5.73142C13.4818 5.68261 13.5889 5.78629 13.5439 5.88921L13.3948 6.229C13.3804 6.26154 13.3812 6.29824 13.3967 6.33003L13.5575 6.66414C13.6063 6.76555 13.5026 6.87263 13.3997 6.82761L13.0599 6.67852C13.0274 6.66452 12.9907 6.6649 12.9589 6.68041L12.6244 6.84123C12.523 6.89004 12.4159 6.78636 12.4609 6.68344L12.61 6.34365C12.6244 6.31111 12.6237 6.27441 12.6081 6.24262L12.4473 5.90851Z" fill="url(#paint3_linear_8608_164768)"/>
<path d="M13.8492 21.9608C13.8163 21.8045 13.9953 21.6918 14.1221 21.789L14.5402 22.1095C14.5799 22.1402 14.631 22.1515 14.6802 22.1413L15.1955 22.0327C15.3518 21.9998 15.4646 22.1787 15.3673 22.3055L15.0468 22.7236C15.0162 22.7634 15.0048 22.8144 15.0151 22.8636L15.1237 23.379C15.1566 23.5353 14.9776 23.648 14.8508 23.5508L14.4327 23.2303C14.393 23.1996 14.3419 23.1883 14.2927 23.1985L13.7774 23.3071C13.6211 23.34 13.5083 23.161 13.6056 23.0343L13.9261 22.6162C13.9567 22.5764 13.9681 22.5254 13.9578 22.4762L13.8492 21.9608Z" fill="url(#paint4_linear_8608_164768)"/>
<defs>
<linearGradient id="paint0_linear_8608_164768" x1="13.0016" y1="0" x2="13.0016" y2="30" gradientUnits="userSpaceOnUse">
<stop stop-color="#FF0049"/>
<stop offset="0.25" stop-color="#FFBE3B"/>
<stop offset="0.5" stop-color="#00BB5C"/>
<stop offset="0.75" stop-color="#187DC4"/>
<stop offset="1" stop-color="#58268B"/>
</linearGradient>
<linearGradient id="paint1_linear_8608_164768" x1="13.0016" y1="0" x2="13.0016" y2="30" gradientUnits="userSpaceOnUse">
<stop stop-color="#FF0049"/>
<stop offset="0.25" stop-color="#FFBE3B"/>
<stop offset="0.5" stop-color="#00BB5C"/>
<stop offset="0.75" stop-color="#187DC4"/>
<stop offset="1" stop-color="#58268B"/>
</linearGradient>
<linearGradient id="paint2_linear_8608_164768" x1="13.0016" y1="0" x2="13.0016" y2="30" gradientUnits="userSpaceOnUse">
<stop stop-color="#FF0049"/>
<stop offset="0.25" stop-color="#FFBE3B"/>
<stop offset="0.5" stop-color="#00BB5C"/>
<stop offset="0.75" stop-color="#187DC4"/>
<stop offset="1" stop-color="#58268B"/>
</linearGradient>
<linearGradient id="paint3_linear_8608_164768" x1="13.0016" y1="0" x2="13.0016" y2="30" gradientUnits="userSpaceOnUse">
<stop stop-color="#FF0049"/>
<stop offset="0.25" stop-color="#FFBE3B"/>
<stop offset="0.5" stop-color="#00BB5C"/>
<stop offset="0.75" stop-color="#187DC4"/>
<stop offset="1" stop-color="#58268B"/>
</linearGradient>
<linearGradient id="paint4_linear_8608_164768" x1="13.0016" y1="0" x2="13.0016" y2="30" gradientUnits="userSpaceOnUse">
<stop stop-color="#FF0049"/>
<stop offset="0.25" stop-color="#FFBE3B"/>
<stop offset="0.5" stop-color="#00BB5C"/>
<stop offset="0.75" stop-color="#187DC4"/>
<stop offset="1" stop-color="#58268B"/>
</linearGradient>
</defs>
</svg>
