<svg width="37" height="34" viewBox="0 0 37 34" fill="none" xmlns="http://www.w3.org/2000/svg">
<path d="M25.1876 8.94922H16.247C15.459 8.94922 14.8203 9.58787 14.8203 10.3759C14.8203 11.1639 15.459 11.8026 16.247 11.8026H25.1876C25.9761 11.8026 26.6143 11.164 26.6143 10.3759C26.6143 9.58787 25.9756 8.94922 25.1876 8.94922Z" fill="#8E8E93"/>
<path d="M28.6116 15.8398H16.247C15.459 15.8398 14.8203 16.4785 14.8203 17.2666C14.8203 18.0545 15.459 18.6933 16.247 18.6933H28.6116C29.3996 18.6933 30.0383 18.0546 30.0383 17.2666C30.0383 16.4785 29.3996 15.8398 28.6116 15.8398Z" fill="#8E8E93"/>
<path d="M35.0733 0H9.82098C9.03298 0 8.39427 0.638648 8.39427 1.42671V14.8851H5.87384C2.91059 14.8851 0.5 17.2962 0.5 20.2589V28.2008C0.5 31.164 2.91059 33.5746 5.87384 33.5746C6.11635 33.5746 6.35513 33.5585 6.58864 33.5271H30.1275C33.641 33.5271 36.5 30.6685 36.5 27.1546V1.42671C36.5 0.638648 35.8614 0 35.0733 0ZM8.39434 28.2008C8.39434 29.4235 7.5188 30.4459 6.36181 30.6737H5.87391V30.7212C4.48384 30.7212 3.35342 29.5903 3.35342 28.2007V20.2589C3.35342 18.8693 4.48433 17.7384 5.87391 17.7384H8.39441L8.39434 28.2008ZM33.6466 27.1545C33.6466 29.0621 32.0354 30.6737 30.1275 30.6737H10.6442C11.0299 29.9332 11.2477 29.0919 11.2477 28.2008V2.85335H33.6466V27.1545Z" fill="#8E8E93"/>
<path d="M25.1876 22.3086H16.247C15.459 22.3086 14.8203 22.9472 14.8203 23.7353C14.8203 24.5233 15.459 25.162 16.247 25.162H25.1876C25.9761 25.162 26.6143 24.5234 26.6143 23.7353C26.6143 22.9472 25.9756 22.3086 25.1876 22.3086Z" fill="#8E8E93"/>
</svg>
