<svg width="36" height="36" viewBox="0 0 36 36" fill="none" xmlns="http://www.w3.org/2000/svg">
<path d="M33 21H31.5C31.5 15.195 26.805 10.5 21 10.5H19.5V8.595C20.4 8.085 21 7.11 21 6C21 4.35 19.665 3 18 3C16.335 3 15 4.35 15 6C15 7.11 15.6 8.085 16.5 8.595V10.5H15C9.195 10.5 4.5 15.195 4.5 21H3C2.175 21 1.5 21.675 1.5 22.5V27C1.5 27.825 2.175 28.5 3 28.5H4.5V30C4.5 31.665 5.85 33 7.5 33H28.5C30.165 33 31.5 31.665 31.5 30V28.5H33C33.825 28.5 34.5 27.825 34.5 27V22.5C34.5 21.675 33.825 21 33 21ZM31.5 25.5H28.5V30H7.5V25.5H4.5V24H7.5V21C7.5 16.86 10.86 13.5 15 13.5H21C25.14 13.5 28.5 16.86 28.5 21V24H31.5V25.5ZM12.75 20.25L16.29 23.79L14.52 25.56L12.75 23.79L10.98 25.56L9.21 23.79L12.75 20.25ZM23.25 20.25L26.79 23.79L25.02 25.56L23.25 23.79L21.48 25.56L19.71 23.79L23.25 20.25Z" fill="#8E8E93"/>
<path d="M33 21H31.5C31.5 15.195 26.805 10.5 21 10.5H19.5V8.595C20.4 8.085 21 7.11 21 6C21 4.35 19.665 3 18 3C16.335 3 15 4.35 15 6C15 7.11 15.6 8.085 16.5 8.595V10.5H15C9.195 10.5 4.5 15.195 4.5 21H3C2.175 21 1.5 21.675 1.5 22.5V27C1.5 27.825 2.175 28.5 3 28.5H4.5V30C4.5 31.665 5.85 33 7.5 33H28.5C30.165 33 31.5 31.665 31.5 30V28.5H33C33.825 28.5 34.5 27.825 34.5 27V22.5C34.5 21.675 33.825 21 33 21ZM31.5 25.5H28.5V30H7.5V25.5H4.5V24H7.5V21C7.5 16.86 10.86 13.5 15 13.5H21C25.14 13.5 28.5 16.86 28.5 21V24H31.5V25.5ZM12.75 20.25L16.29 23.79L14.52 25.56L12.75 23.79L10.98 25.56L9.21 23.79L12.75 20.25ZM23.25 20.25L26.79 23.79L25.02 25.56L23.25 23.79L21.48 25.56L19.71 23.79L23.25 20.25Z" fill="#8E8E93"/>
<path d="M33 21H31.5C31.5 15.195 26.805 10.5 21 10.5H19.5V8.595C20.4 8.085 21 7.11 21 6C21 4.35 19.665 3 18 3C16.335 3 15 4.35 15 6C15 7.11 15.6 8.085 16.5 8.595V10.5H15C9.195 10.5 4.5 15.195 4.5 21H3C2.175 21 1.5 21.675 1.5 22.5V27C1.5 27.825 2.175 28.5 3 28.5H4.5V30C4.5 31.665 5.85 33 7.5 33H28.5C30.165 33 31.5 31.665 31.5 30V28.5H33C33.825 28.5 34.5 27.825 34.5 27V22.5C34.5 21.675 33.825 21 33 21ZM31.5 25.5H28.5V30H7.5V25.5H4.5V24H7.5V21C7.5 16.86 10.86 13.5 15 13.5H21C25.14 13.5 28.5 16.86 28.5 21V24H31.5V25.5ZM12.75 20.25L16.29 23.79L14.52 25.56L12.75 23.79L10.98 25.56L9.21 23.79L12.75 20.25ZM23.25 20.25L26.79 23.79L25.02 25.56L23.25 23.79L21.48 25.56L19.71 23.79L23.25 20.25Z" fill="#8E8E93" fill-opacity="0.7"/>
<path d="M33 21H31.5C31.5 15.195 26.805 10.5 21 10.5H19.5V8.595C20.4 8.085 21 7.11 21 6C21 4.35 19.665 3 18 3C16.335 3 15 4.35 15 6C15 7.11 15.6 8.085 16.5 8.595V10.5H15C9.195 10.5 4.5 15.195 4.5 21H3C2.175 21 1.5 21.675 1.5 22.5V27C1.5 27.825 2.175 28.5 3 28.5H4.5V30C4.5 31.665 5.85 33 7.5 33H28.5C30.165 33 31.5 31.665 31.5 30V28.5H33C33.825 28.5 34.5 27.825 34.5 27V22.5C34.5 21.675 33.825 21 33 21ZM31.5 25.5H28.5V30H7.5V25.5H4.5V24H7.5V21C7.5 16.86 10.86 13.5 15 13.5H21C25.14 13.5 28.5 16.86 28.5 21V24H31.5V25.5ZM12.75 20.25L16.29 23.79L14.52 25.56L12.75 23.79L10.98 25.56L9.21 23.79L12.75 20.25ZM23.25 20.25L26.79 23.79L25.02 25.56L23.25 23.79L21.48 25.56L19.71 23.79L23.25 20.25Z" fill="#8E8E93" fill-opacity="0.55"/>
<path d="M33 21H31.5C31.5 15.195 26.805 10.5 21 10.5H19.5V8.595C20.4 8.085 21 7.11 21 6C21 4.35 19.665 3 18 3C16.335 3 15 4.35 15 6C15 7.11 15.6 8.085 16.5 8.595V10.5H15C9.195 10.5 4.5 15.195 4.5 21H3C2.175 21 1.5 21.675 1.5 22.5V27C1.5 27.825 2.175 28.5 3 28.5H4.5V30C4.5 31.665 5.85 33 7.5 33H28.5C30.165 33 31.5 31.665 31.5 30V28.5H33C33.825 28.5 34.5 27.825 34.5 27V22.5C34.5 21.675 33.825 21 33 21ZM31.5 25.5H28.5V30H7.5V25.5H4.5V24H7.5V21C7.5 16.86 10.86 13.5 15 13.5H21C25.14 13.5 28.5 16.86 28.5 21V24H31.5V25.5ZM12.75 20.25L16.29 23.79L14.52 25.56L12.75 23.79L10.98 25.56L9.21 23.79L12.75 20.25ZM23.25 20.25L26.79 23.79L25.02 25.56L23.25 23.79L21.48 25.56L19.71 23.79L23.25 20.25Z" fill="#8E8E93" fill-opacity="0.4"/>
<path d="M33 21H31.5C31.5 15.195 26.805 10.5 21 10.5H19.5V8.595C20.4 8.085 21 7.11 21 6C21 4.35 19.665 3 18 3C16.335 3 15 4.35 15 6C15 7.11 15.6 8.085 16.5 8.595V10.5H15C9.195 10.5 4.5 15.195 4.5 21H3C2.175 21 1.5 21.675 1.5 22.5V27C1.5 27.825 2.175 28.5 3 28.5H4.5V30C4.5 31.665 5.85 33 7.5 33H28.5C30.165 33 31.5 31.665 31.5 30V28.5H33C33.825 28.5 34.5 27.825 34.5 27V22.5C34.5 21.675 33.825 21 33 21ZM31.5 25.5H28.5V30H7.5V25.5H4.5V24H7.5V21C7.5 16.86 10.86 13.5 15 13.5H21C25.14 13.5 28.5 16.86 28.5 21V24H31.5V25.5ZM12.75 20.25L16.29 23.79L14.52 25.56L12.75 23.79L10.98 25.56L9.21 23.79L12.75 20.25ZM23.25 20.25L26.79 23.79L25.02 25.56L23.25 23.79L21.48 25.56L19.71 23.79L23.25 20.25Z" fill="#8E8E93" fill-opacity="0.25"/>
<path d="M33 21H31.5C31.5 15.195 26.805 10.5 21 10.5H19.5V8.595C20.4 8.085 21 7.11 21 6C21 4.35 19.665 3 18 3C16.335 3 15 4.35 15 6C15 7.11 15.6 8.085 16.5 8.595V10.5H15C9.195 10.5 4.5 15.195 4.5 21H3C2.175 21 1.5 21.675 1.5 22.5V27C1.5 27.825 2.175 28.5 3 28.5H4.5V30C4.5 31.665 5.85 33 7.5 33H28.5C30.165 33 31.5 31.665 31.5 30V28.5H33C33.825 28.5 34.5 27.825 34.5 27V22.5C34.5 21.675 33.825 21 33 21ZM31.5 25.5H28.5V30H7.5V25.5H4.5V24H7.5V21C7.5 16.86 10.86 13.5 15 13.5H21C25.14 13.5 28.5 16.86 28.5 21V24H31.5V25.5ZM12.75 20.25L16.29 23.79L14.52 25.56L12.75 23.79L10.98 25.56L9.21 23.79L12.75 20.25ZM23.25 20.25L26.79 23.79L25.02 25.56L23.25 23.79L21.48 25.56L19.71 23.79L23.25 20.25Z" fill="#8E8E93" fill-opacity="0.1"/>
</svg>
