<svg width="33" height="30" viewBox="0 0 33 30" fill="none" xmlns="http://www.w3.org/2000/svg">
<path d="M29 0H4C3.00544 0 2.05161 0.395088 1.34835 1.09835C0.645088 1.80161 0.25 2.75544 0.25 3.75V21.25C0.25 22.2446 0.645088 23.1984 1.34835 23.9017C2.05161 24.6049 3.00544 25 4 25H29C29.9946 25 30.9484 24.6049 31.6516 23.9017C32.3549 23.1984 32.75 22.2446 32.75 21.25V3.75C32.75 2.75544 32.3549 1.80161 31.6516 1.09835C30.9484 0.395088 29.9946 0 29 0ZM30.25 21.25C30.25 21.5815 30.1183 21.8995 29.8839 22.1339C29.6495 22.3683 29.3315 22.5 29 22.5H4C3.66848 22.5 3.35054 22.3683 3.11612 22.1339C2.8817 21.8995 2.75 21.5815 2.75 21.25V3.75C2.75 3.41848 2.8817 3.10054 3.11612 2.86612C3.35054 2.6317 3.66848 2.5 4 2.5H29C29.3315 2.5 29.6495 2.6317 29.8839 2.86612C30.1183 3.10054 30.25 3.41848 30.25 3.75V21.25ZM22.75 28.75C22.75 29.0815 22.6183 29.3995 22.3839 29.6339C22.1495 29.8683 21.8315 30 21.5 30H11.5C11.1685 30 10.8505 29.8683 10.6161 29.6339C10.3817 29.3995 10.25 29.0815 10.25 28.75C10.25 28.4185 10.3817 28.1005 10.6161 27.8661C10.8505 27.6317 11.1685 27.5 11.5 27.5H21.5C21.8315 27.5 22.1495 27.6317 22.3839 27.8661C22.6183 28.1005 22.75 28.4185 22.75 28.75ZM22.1937 11.4594L14.6937 6.45937C14.5055 6.33375 14.2866 6.26161 14.0605 6.25065C13.8344 6.2397 13.6096 6.29034 13.41 6.39718C13.2105 6.50402 13.0437 6.66304 12.9274 6.85726C12.8112 7.05149 12.7499 7.27364 12.75 7.5V17.5C12.7499 17.7264 12.8112 17.9485 12.9274 18.1427C13.0437 18.337 13.2105 18.496 13.41 18.6028C13.6096 18.7097 13.8344 18.7603 14.0605 18.7493C14.2866 18.7384 14.5055 18.6663 14.6937 18.5406L22.1937 13.5406C22.3652 13.4265 22.5058 13.2718 22.6031 13.0903C22.7003 12.9087 22.7512 12.706 22.7512 12.5C22.7512 12.294 22.7003 12.0913 22.6031 11.9097C22.5058 11.7282 22.3652 11.5735 22.1937 11.4594ZM15.25 15.1641V9.84375L19.2469 12.5L15.25 15.1641Z" fill="#8B8B8B"/>
</svg>
